A Christmas Carol 1951 BluRay 1080p ac3-LoNeWoLf

Encoded by Tequila-Bob a.k.a. bobnjeff a.k.a.LoNeWoLf

Source NTSC BluRay Disc

 
http://www.imdb.com/title/tt0044008/

A Christmas Carol (1951) 

Scrooge (original title) 
86 min  -  Fantasy | Drama   -  31 October 1951 (UK) 
8.1/10 X  Users: 8.1/10 (8,086 votes) 176 reviews | Critics: 32 reviews 
An old bitter miser is given a chance for redemption when he is haunted by ghosts on Christmas Eve. 


Director: Brian Desmond Hurst
Writers: Charles Dickens (story), Noel Langley (adaptation)
Stars:Alastair Sim, Jack Warner and Kathleen Harrison

Genres:Fantasy | Drama

Release Date:31 October 1951 (UK)

Cast
Cast overview, first billed only: 
  Alastair Sim  ...  Ebenezer Scrooge  
  Kathleen Harrison  ...  Mrs. Dilber  
  Mervyn Johns  ...  Bob Cratchit  
  Hermione Baddeley  ...  Mrs. Cratchit  
  Michael Hordern  ...  Jacob Marley / Marley's Ghost  
  George Cole  ...  Young Ebenezer Scrooge  
  John Charlesworth  ...  Peter Cratchit  
  Francis De Wolff  ...  Spirit of Christmas Present (as Francis de Wolff)  
  Rona Anderson  ...  Alice  
  Carol Marsh  ...  Fan Scrooge  
  Brian Worth  ...  Fred  
  Miles Malleson  ...  Old Joe  
  Ernest Thesiger  ...  The Undertaker  
  Glyn Dearman  ...  Tiny Tim  
  Michael Dolan  ...  Spirit of Christmas Past 


[img]http://torrent-stats.info/f625/1065bcdf1.png[/img]


Format : Matroska 
File size : 6.58 GiB 
Duration : 1h 26mn 
Overall bit rate : 10.9 Mbps 
Encoded date : UTC 2010-11-29 10:36:19 
Writing application : mkvmerge v4.4.0 ('Die Wiederkehr') built on Oct 31 2010 21:52:48 
Writing library : libebml v1.0.0 + libmatroska v1.0.0 

Video 
ID : 1 
Format : AVC 
Format/Info : Advanced Video Codec 
Format profile : High@L4.1 
Format settings, CABAC : Yes 
Format settings, ReFrames : 7 frames 
Muxing mode : Container profile=Unknown@4.1 
Codec ID : V_MPEG4/ISO/AVC 
Duration : 1h 26mn 
Bit rate : 10.4 Mbps 
Width : 1 456 pixels 
Height : 1 072 pixels 
Display aspect ratio : 4:3 
Frame rate : 23.976 fps 
Color space : YUV 
Chroma subsampling : 4:2:0 
Bit depth : 8 bits 
Scan type : Progressive 
Bits/(Pixel*Frame) : 0.278 
Stream size : 6.17 GiB (94%) 
Writing library : x264 core 98 r1649 c54c47d 
Encoding settings : cabac=1 / ref=8 / deblock=1:0:0 / analyse=0x3:0x133 / me=umh / subme=7 / psy=1 / psy_rd=1.00:0.15 / mixed_ref=1 / me_range=24 / chroma_me=1 / trellis=1 / 8x8dct=1 / cqm=0 / deadzone=21,11 / fast_pskip=1 / chroma_qp_offset=-3 / threads=6 / sliced_threads=0 / nr=0 / decimate=1 / interlaced=0 / constrained_intra=0 / bframes=5 / b_pyramid=1 / b_adapt=1 / b_bias=0 / direct=1 / weightb=1 / weightp=2 / keyint=250 / keyint_min=25 / scenecut=40 / intra_refresh=0 / rc_lookahead=50 / rc=2pass / mbtree=1 / bitrate=10405 / ratetol=1.0 / qcomp=0.60 / qpmin=10 / qpmax=51 / qpstep=4 / cplxblur=20.0 / qblur=0.5 / ip_ratio=1.40 / aq=1:1.50 
Language : English 

Audio 
ID : 2 
Format : AC-3 
Format/Info : Audio Coding 3 
Mode extension : CM (complete main) 
Codec ID : A_AC3 
Duration : 1h 26mn 
Bit rate mode : Constant 
Bit rate : 448 Kbps 
Channel(s) : 6 channels 
Channel positions : Front: L C R, Side: L R, LFE 
Sampling rate : 48.0 KHz 
Bit depth : 16 bits 
Stream size : 277 MiB (4%) 
Title : 3/2+1 
Language : English 

Text #1 
ID : 3 
Format : PGS 
Codec ID : S_HDMV/PGS 
Codec ID/Info : The same subtitle format used on BDs/HD-DVDs 
Language : English 

Text #2 
ID : 4 
Format : PGS 
Codec ID : S_HDMV/PGS 
Codec ID/Info : The same subtitle format used on BDs/HD-DVDs 

Text #3 
ID : 5 
Format : PGS 
Codec ID : S_HDMV/PGS 
Codec ID/Info : The same subtitle format used on BDs/HD-DVDs 
Language : English 

Menu & Chapters 17



See the full size 1456x1072 PNG files at the link below


 
http://s1015.photobucket.com/albums/af279/tequila-bob/A%20Christmas%20Carol%201951/